<?xml version="1.0" encoding="UTF-8"?>
<svg width="928px" height="463px" viewBox="0 0 928 463" version="1.1" xmlns="http://www.w3.org/2000/svg" xmlns:xlink="http://www.w3.org/1999/xlink">
    <title>Artboard</title>
    <defs>
        <rect id="path-1" x="255" y="11" width="308" height="227" rx="6"></rect>
        <filter x="-3.2%" y="-3.5%" width="106.5%" height="108.8%" filterUnits="objectBoundingBox" id="filter-2">
            <feMorphology radius="2" operator="erode" in="SourceAlpha" result="shadowSpreadOuter1"></feMorphology>
            <feOffset dx="0" dy="2" in="shadowSpreadOuter1" result="shadowOffsetOuter1"></feOffset>
            <feGaussianBlur stdDeviation="5" in="shadowOffsetOuter1" result="shadowBlurOuter1"></feGaussianBlur>
            <feColorMatrix values="0 0 0 0 0   0 0 0 0 0   0 0 0 0 0  0 0 0 0.5 0" type="matrix" in="shadowBlurOuter1"></feColorMatrix>
        </filter>
        <linearGradient x1="0%" y1="100%" x2="100%" y2="0%" id="linearGradient-3">
            <stop stop-color="#B0084D" offset="0%"></stop>
            <stop stop-color="#FF4F8B" offset="100%"></stop>
        </linearGradient>
        <linearGradient x1="0%" y1="100%" x2="100%" y2="0%" id="linearGradient-4">
            <stop stop-color="#2E27AD" offset="0%"></stop>
            <stop stop-color="#527FFF" offset="100%"></stop>
        </linearGradient>
        <linearGradient x1="0%" y1="100%" x2="100%" y2="0%" id="linearGradient-5">
            <stop stop-color="#BD0816" offset="0%"></stop>
            <stop stop-color="#FF5252" offset="100%"></stop>
        </linearGradient>
        <linearGradient x1="76.2869271%" y1="110.896339%" x2="32.3864617%" y2="0%" id="linearGradient-6">
            <stop stop-color="#DC2626" offset="0%"></stop>
            <stop stop-color="#F472B6" offset="100%"></stop>
        </linearGradient>
        <rect id="path-7" x="624" y="10" width="304" height="67" rx="6"></rect>
        <filter x="-2.8%" y="-9.7%" width="105.6%" height="125.4%" filterUnits="objectBoundingBox" id="filter-8">
            <feMorphology radius="2" operator="erode" in="SourceAlpha" result="shadowSpreadOuter1"></feMorphology>
            <feOffset dx="0" dy="2" in="shadowSpreadOuter1" result="shadowOffsetOuter1"></feOffset>
            <feGaussianBlur stdDeviation="4.5" in="shadowOffsetOuter1" result="shadowBlurOuter1"></feGaussianBlur>
            <feColorMatrix values="0 0 0 0 0   0 0 0 0 0   0 0 0 0 0  0 0 0 0.5 0" type="matrix" in="shadowBlurOuter1"></feColorMatrix>
        </filter>
        <linearGradient x1="67.6376684%" y1="46.624727%" x2="33.4009201%" y2="55.1605628%" id="linearGradient-9">
            <stop stop-color="#56BFE9" offset="0%"></stop>
            <stop stop-color="#2E9ADE" offset="100%"></stop>
        </linearGradient>
        <rect id="path-10" x="0" y="11" width="197" height="67" rx="6"></rect>
        <filter x="-4.3%" y="-9.7%" width="108.6%" height="125.4%" filterUnits="objectBoundingBox" id="filter-11">
            <feMorphology radius="2" operator="erode" in="SourceAlpha" result="shadowSpreadOuter1"></feMorphology>
            <feOffset dx="0" dy="2" in="shadowSpreadOuter1" result="shadowOffsetOuter1"></feOffset>
            <feGaussianBlur stdDeviation="4.5" in="shadowOffsetOuter1" result="shadowBlurOuter1"></feGaussianBlur>
            <feColorMatrix values="0 0 0 0 0   0 0 0 0 0   0 0 0 0 0  0 0 0 0.5 0" type="matrix" in="shadowBlurOuter1"></feColorMatrix>
        </filter>
        <rect id="path-12" x="0" y="91" width="197" height="67" rx="6"></rect>
        <filter x="-4.3%" y="-9.7%" width="108.6%" height="125.4%" filterUnits="objectBoundingBox" id="filter-13">
            <feMorphology radius="2" operator="erode" in="SourceAlpha" result="shadowSpreadOuter1"></feMorphology>
            <feOffset dx="0" dy="2" in="shadowSpreadOuter1" result="shadowOffsetOuter1"></feOffset>
            <feGaussianBlur stdDeviation="4.5" in="shadowOffsetOuter1" result="shadowBlurOuter1"></feGaussianBlur>
            <feColorMatrix values="0 0 0 0 0   0 0 0 0 0   0 0 0 0 0  0 0 0 0.5 0" type="matrix" in="shadowBlurOuter1"></feColorMatrix>
        </filter>
        <rect id="path-14" x="0" y="171" width="197" height="67" rx="6"></rect>
        <filter x="-4.3%" y="-9.7%" width="108.6%" height="125.4%" filterUnits="objectBoundingBox" id="filter-15">
            <feMorphology radius="2" operator="erode" in="SourceAlpha" result="shadowSpreadOuter1"></feMorphology>
            <feOffset dx="0" dy="2" in="shadowSpreadOuter1" result="shadowOffsetOuter1"></feOffset>
            <feGaussianBlur stdDeviation="4.5" in="shadowOffsetOuter1" result="shadowBlurOuter1"></feGaussianBlur>
            <feColorMatrix values="0 0 0 0 0   0 0 0 0 0   0 0 0 0 0  0 0 0 0.5 0" type="matrix" in="shadowBlurOuter1"></feColorMatrix>
        </filter>
        <linearGradient x1="126.390419%" y1="50.371878%" x2="9.51610683%" y2="49.5383364%" id="linearGradient-16">
            <stop stop-color="#DC2626" offset="0%"></stop>
            <stop stop-color="#EB5782" offset="100%"></stop>
        </linearGradient>
        <linearGradient x1="126.390419%" y1="52.5909275%" x2="9.51610683%" y2="46.7835232%" id="linearGradient-17">
            <stop stop-color="#DC2626" offset="0%"></stop>
            <stop stop-color="#EB5782" offset="100%"></stop>
        </linearGradient>
        <linearGradient x1="126.390419%" y1="50.2073505%" x2="9.51610683%" y2="49.7425872%" id="linearGradient-18">
            <stop stop-color="#DC2626" offset="0%"></stop>
            <stop stop-color="#EB5782" offset="100%"></stop>
        </linearGradient>
        <rect id="path-19" x="624" y="90" width="304" height="67" rx="6"></rect>
        <filter x="-2.8%" y="-9.7%" width="105.6%" height="125.4%" filterUnits="objectBoundingBox" id="filter-20">
            <feMorphology radius="2" operator="erode" in="SourceAlpha" result="shadowSpreadOuter1"></feMorphology>
            <feOffset dx="0" dy="2" in="shadowSpreadOuter1" result="shadowOffsetOuter1"></feOffset>
            <feGaussianBlur stdDeviation="4.5" in="shadowOffsetOuter1" result="shadowBlurOuter1"></feGaussianBlur>
            <feColorMatrix values="0 0 0 0 0   0 0 0 0 0   0 0 0 0 0  0 0 0 0.5 0" type="matrix" in="shadowBlurOuter1"></feColorMatrix>
        </filter>
        <rect id="path-21" x="624" y="171" width="304" height="67" rx="6"></rect>
        <filter x="-2.8%" y="-9.7%" width="105.6%" height="125.4%" filterUnits="objectBoundingBox" id="filter-22">
            <feMorphology radius="2" operator="erode" in="SourceAlpha" result="shadowSpreadOuter1"></feMorphology>
            <feOffset dx="0" dy="2" in="shadowSpreadOuter1" result="shadowOffsetOuter1"></feOffset>
            <feGaussianBlur stdDeviation="4.5" in="shadowOffsetOuter1" result="shadowBlurOuter1"></feGaussianBlur>
            <feColorMatrix values="0 0 0 0 0   0 0 0 0 0   0 0 0 0 0  0 0 0 0.5 0" type="matrix" in="shadowBlurOuter1"></feColorMatrix>
        </filter>
    </defs>
    <g id="Artboard" stroke="none" stroke-width="1" fill="none" fill-rule="evenodd">
        <g id="Rectangle-Copy-3">
            <use fill="black" fill-opacity="1" filter="url(#filter-2)" xlink:href="#path-1"></use>
            <use fill="#000000" fill-rule="evenodd" xlink:href="#path-1"></use>
        </g>
        <g id="Group-6" transform="translate(274.000000, 91.000000)">
            <text id="Frontend-Communicati" font-family="HelveticaNeue, Helvetica Neue" font-size="12" font-weight="normal" fill="#FFFFFF">
                <tspan x="31" y="16">Frontend Communication (ApiGateway)</tspan>
            </text>
            <g id="Group">
                <g fill="url(#linearGradient-3)" id="Rectangle">
                    <rect x="0" y="0" width="24" height="24"></rect>
                </g>
                <g transform="translate(4.000000, 4.000000)" fill="#FFFFFF" id="Icon-Service/16/Amazon-API-Gateway_16">
                    <path d="M2,2.76751613 L4,1.43446738 L4,14.5659476 L2,13.2328988 L2,2.76751613 Z M1,2.49950633 L1,13.4999086 C1,13.6669147 1.084,13.8239204 1.223,13.9159238 L4.223,15.9159969 C4.307,15.971999 4.403,16 4.5,16 C4.581,16 4.662,15.9809993 4.736,15.9409978 C4.898,15.8539947 5,15.6849885 5,15.4999817 L5,12.9998903 L6,12.9998903 L6,11.9998537 L5,11.9998537 L5,3.99956118 L6,3.99956118 L6,2.99952461 L5,2.99952461 L5,0.499433192 C5,0.315426463 4.898,0.145420247 4.736,0.059417102 C4.574,-0.0275860794 4.377,-0.0185857503 4.223,0.0834179797 L1.223,2.08349112 C1.084,2.17649452 1,2.33250022 1,2.49950633 L1,2.49950633 Z M15,13.2328988 L13,14.5659476 L13,1.43446738 L15,2.76751613 L15,13.2328988 Z M15.777,2.08349112 L12.777,0.0834179797 C12.623,-0.0185857503 12.426,-0.0275860794 12.264,0.059417102 C12.102,0.145420247 12,0.315426463 12,0.499433192 L12,2.99952461 L11,2.99952461 L11,3.99956118 L12,3.99956118 L12,11.9998537 L11,11.9998537 L11,12.9998903 L12,12.9998903 L12,15.4999817 C12,15.6849885 12.102,15.8539947 12.264,15.9409978 C12.338,15.9809993 12.419,16 12.5,16 C12.597,16 12.693,15.971999 12.777,15.9159969 L15.777,13.9159238 C15.916,13.8239204 16,13.6669147 16,13.4999086 L16,2.49950633 C16,2.33250022 15.916,2.17649452 15.777,2.08349112 L15.777,2.08349112 Z M9,3.99956118 L10,3.99956118 L10,2.99952461 L9,2.99952461 L9,3.99956118 Z M7,3.99956118 L8,3.99956118 L8,2.99952461 L7,2.99952461 L7,3.99956118 Z M9,12.9998903 L10,12.9998903 L10,11.9998537 L9,11.9998537 L9,12.9998903 Z M7,12.9998903 L8,12.9998903 L8,11.9998537 L7,11.9998537 L7,12.9998903 Z M9.18,10.884813 L6.18,8.38472153 C6.065,8.28871802 6,8.1487129 6,7.99970745 C6,7.85170204 6.065,7.71069689 6.18,7.61569341 L9.18,5.11560199 L9.82,5.88463011 L7.281,7.99970745 L9.82,10.1157848 L9.18,10.884813 Z" id="Amazon-API-Gateway_Icon_16_Squid"></path>
                </g>
            </g>
        </g>
        <g id="Group-7" transform="translate(274.000000, 119.000000)">
            <text id="Backend-Communicatio" font-family="HelveticaNeue, Helvetica Neue" font-size="12" font-weight="normal" fill="#FFFFFF">
                <tspan x="31" y="16">Backend Communication (EventBridge)</tspan>
            </text>
            <g id="Group-4">
                <g id="Rectangle" fill="url(#linearGradient-3)">
                    <rect x="0" y="0" width="24" height="24"></rect>
                </g>
                <path d="M6.5485452,16.461 C6.00062039,16.461 5.55592779,16.012 5.55592779,15.461 C5.55592779,14.91 6.00062039,14.461 6.5485452,14.461 C7.09647,14.461 7.5411626,14.91 7.5411626,15.461 C7.5411626,16.012 7.09647,16.461 6.5485452,16.461 L6.5485452,16.461 Z M7.89254917,16.924 C8.28463304,16.558 8.53378001,16.041 8.53378001,15.461 C8.53378001,14.358 7.6434022,13.461 6.5485452,13.461 C6.34406601,13.461 6.15050561,13.502 5.96389354,13.56 L5.06954526,11.998 L6.3718593,9.723 L5.51324524,9.223 L4.06700168,11.748 C3.97766611,11.902 3.97766611,12.093 4.06700168,12.248 L5.11818351,14.081 C4.77672312,14.44 4.56331038,14.925 4.56331038,15.461 C4.56331038,16.564 5.45368819,17.461 6.5485452,17.461 C6.71133445,17.461 6.86717538,17.436 7.01904585,17.398 L7.79527266,18.753 C7.88361561,18.908 8.04739748,19.003 8.22408338,19.003 L10.998449,19.003 L10.998449,18.003 L8.51194243,18.003 L7.89254917,16.924 Z M17.4504622,9.517 C16.90353,9.517 16.4578448,9.068 16.4578448,8.517 C16.4578448,7.965 16.90353,7.517 17.4504622,7.517 C17.998387,7.517 18.4430796,7.965 18.4430796,8.517 C18.4430796,9.068 17.998387,9.517 17.4504622,9.517 L17.4504622,9.517 Z M18.8818165,9.896 C19.2232769,9.537 19.435697,9.052 19.435697,8.517 C19.435697,7.414 18.5453192,6.517 17.4504622,6.517 C17.2876729,6.517 17.1328246,6.542 16.9809542,6.58 L16.20572,5.225 C16.117377,5.07 15.9535951,4.975 15.7759166,4.975 L13.001551,4.975 L13.001551,5.975 L15.4890502,5.975 L16.1074508,7.054 C15.715367,7.419 15.4652274,7.937 15.4652274,8.517 C15.4652274,9.62 16.3565978,10.517 17.4504622,10.517 C17.6549414,10.517 17.8494944,10.476 18.0351138,10.418 L18.9314474,11.981 L17.6271481,14.254 L18.4857621,14.754 L19.9329983,12.231 C20.0223339,12.076 20.0223339,11.885 19.9329983,11.731 L18.8818165,9.896 Z M15.9794032,19 C15.4314784,19 14.9867858,18.551 14.9867858,18 C14.9867858,17.448 15.4314784,17 15.9794032,17 C16.527328,17 16.9720206,17.448 16.9720206,18 C16.9720206,18.551 16.527328,19 15.9794032,19 L15.9794032,19 Z M12.9836839,14.1 L10.7949625,14.1 L9.59091755,12 L10.7066195,10.053 L10.9607296,9.899 L13.2010671,9.899 L14.405112,12 L13.3162107,13.898 L12.9836839,14.1 Z M8.03846392,7 C7.49053912,7 7.04584652,6.551 7.04584652,6 C7.04584652,5.448 7.49053912,5 8.03846392,5 C8.58638873,5 9.03108133,5.448 9.03108133,6 C9.03108133,6.551 8.58638873,7 8.03846392,7 L8.03846392,7 Z M15.9794032,16 C15.6577951,16 15.3570321,16.085 15.0880328,16.222 L14.0914449,14.547 L15.4076556,12.25 C15.4969911,12.095 15.4969911,11.904 15.4076556,11.75 L13.9177368,9.149 C13.8293939,8.995 13.665612,8.899 13.4879335,8.899 L10.7264719,8.899 L9.67231218,7.13 C9.89366586,6.808 10.0236987,6.419 10.0236987,6 C10.0236987,4.897 9.13332093,4 8.03846392,4 C6.94360692,4 6.05322911,4.897 6.05322911,6 C6.05322911,7.103 6.94360692,8 8.03846392,8 C8.35113841,8 8.64396054,7.919 8.90799677,7.789 L9.9016068,9.459 L8.58936659,11.75 C8.50003102,11.904 8.50003102,12.095 8.58936659,12.25 L10.0792853,14.85 C10.1676283,15.004 10.3314101,15.1 10.508096,15.1 L13.2626093,15.1 L14.3286804,16.891 C14.1182455,17.209 13.9941684,17.589 13.9941684,18 C13.9941684,19.103 14.8845462,20 15.9794032,20 C17.0742602,20 17.964638,19.103 17.964638,18 C17.964638,16.897 17.0742602,16 15.9794032,16 L15.9794032,16 Z" id="Amazon-EventBridge_Icon_16_Squid" fill="#FFFFFF"></path>
            </g>
        </g>
        <g id="Group-8" transform="translate(274.000000, 147.000000)">
            <g id="Group-2">
                <g id="Rectangle" fill="url(#linearGradient-4)">
                    <rect x="0" y="0" width="24" height="24"></rect>
                </g>
                <path d="M14.3871979,13.0634319 L15.4218955,9.61738691 C15.468467,9.46474602 15.4391067,9.29896386 15.3439388,9.17058378 C15.2487709,9.04220369 15.0979197,8.96739955 14.9379567,8.96739955 L14.2383715,8.96739955 L15.2507958,6.94566591 L17.7798316,6.94566591 L16.9881159,9.313116 C16.9374946,9.46676775 16.9628052,9.63659338 17.0589856,9.76800607 C17.153141,9.90042962 17.3060171,9.97826636 17.4690174,9.97826636 L18.095708,9.97826636 L14.3871979,13.0634319 Z M19.9697053,9.29997473 C19.8968108,9.10083397 19.7074875,8.96739955 19.4938659,8.96739955 L18.1706274,8.96739955 L18.9623432,6.59994946 C19.0129644,6.4462977 18.9876538,6.27647207 18.8914735,6.14404852 C18.7963056,6.01263584 18.644442,5.93479909 18.4814417,5.93479909 L14.9379567,5.93479909 C14.7455961,5.93479909 14.5714591,6.04296184 14.485403,6.21379833 L12.9667666,9.24639879 C12.88881,9.40308314 12.8958969,9.58908264 12.9880275,9.73768006 C13.0811706,9.88728835 13.2441709,9.97826636 13.4193203,9.97826636 L14.2576076,9.97826636 L12.9343691,14.3816022 C12.8705863,14.595906 12.9536051,14.8253728 13.1409036,14.9486985 C13.2259472,15.0042962 13.3221275,15.0326005 13.4193203,15.0326005 C13.5347366,15.0326005 13.6491406,14.9931766 13.743296,14.9153399 L19.8178417,9.86100581 C19.980842,9.72453879 20.0425999,9.50113723 19.9697053,9.29997473 L19.9697053,9.29997473 Z M14.8346894,17.6285064 C14.8346894,18.0904726 13.2775809,18.9891332 10.4235568,18.9891332 C7.56953281,18.9891332 6.01242428,18.0904726 6.01242428,17.6285064 L6.01242428,16.562042 C7.04914673,17.1786707 8.74293255,17.495072 10.4235568,17.495072 C12.1041811,17.495072 13.797967,17.1786707 14.8346894,16.562042 L14.8346894,17.6285064 Z M14.8346894,15.1235785 C14.8346894,15.5855446 13.2775809,16.4842052 10.4235568,16.4842052 C7.56953281,16.4842052 6.01242428,15.5855446 6.01242428,15.1235785 C6.01242428,15.0275461 6.08633125,14.9133182 6.21187186,14.7950468 C7.21214704,15.316654 8.74698225,15.6239575 10.4235568,15.6239575 C10.4438053,15.6239575 11.9948393,15.5916098 11.9948393,15.5916098 L11.9948393,14.580743 C11.9745908,14.580743 10.4235568,14.6130907 10.4235568,14.6130907 C8.77128043,14.6130907 7.24656947,14.2886025 6.44574187,13.7680061 C6.17542458,13.5900935 6.0134367,13.3980288 6.01242428,13.252464 L6.01242428,12.1859995 C7.04914673,12.8026283 8.74293255,13.1200404 10.4235568,13.1200404 C10.6898244,13.1200404 11.8348763,13.0391711 12.1922621,13.0138994 L12.213523,12.5054334 L12.1203799,12.0050543 C11.7761557,12.0293151 10.6786878,12.1091736 10.4235568,12.1091736 C7.56953281,12.1091736 6.01242428,11.2095021 6.01242428,10.747536 C6.01242428,10.6474602 6.09139337,10.5281779 6.22503337,10.405863 C7.01877401,10.7566338 8.57183285,11.1508719 12.3178027,11.1963609 L12.3299518,10.1854941 C9.27951741,10.1491029 7.3437622,9.88223402 6.44574187,9.39095274 C6.17542458,9.21304018 6.0134367,9.02097549 6.01242428,8.87541066 L6.01242428,7.80995704 C7.04914673,8.4265858 8.74293255,8.74298711 10.4235568,8.74298711 C10.5015135,8.74298711 12.480803,8.70659591 12.5587596,8.70356331 L12.5152254,7.69370735 C12.4079084,7.69775082 10.5187247,7.73212029 10.4235568,7.73212029 C7.56953281,7.73212029 6.01242428,6.83345969 6.01242428,6.37149356 C6.01242428,5.90952742 7.56953281,5.01086682 10.4235568,5.01086682 C11.7447705,5.01086682 13.0001766,5.21809452 13.8668118,5.5809957 L14.25862,4.64796563 C13.2573324,4.23047763 11.8956217,4 10.4235568,4 C7.72949585,4 5.00101242,4.81374779 5,6.36947182 L5,8.88147587 C5,8.88147587 5.09213061,9.46070255 5.40092001,9.80742987 C5.08808091,10.1551681 5,10.4938084 5,10.7465251 L5,13.2625727 C5.00101242,13.510235 5.09213061,13.8438211 5.39788274,14.1875158 C5.08808091,14.5342431 5,14.8718726 5,15.1235785 L5,17.6335608 C5.00506212,19.1872631 7.7315207,20 10.4235568,20 C13.1186303,20 15.8471137,19.1862522 15.8471137,17.6305282 L15.8471137,15.1235785 L14.8346894,15.1235785 Z" id="Amazon-DynamoDB_Icon_16_Squid" fill="#FFFFFF"></path>
            </g>
            <text id="Database-(DynamoDB)" font-family="HelveticaNeue, Helvetica Neue" font-size="12" font-weight="normal" fill="#FFFFFF">
                <tspan x="32" y="16">Database (DynamoDB)</tspan>
            </text>
        </g>
        <g id="Group-10" transform="translate(274.000000, 175.000000)">
            <text id="Users-+-Auth-+-Permi" font-family="HelveticaNeue, Helvetica Neue" font-size="12" font-weight="normal" fill="#FFFFFF">
                <tspan x="34" y="16">Users + Auth + Permissions (Cognito)</tspan>
            </text>
            <g id="Group-3">
                <g id="Rectangle" fill="url(#linearGradient-5)">
                    <rect x="0" y="0" width="24" height="24"></rect>
                </g>
                <path d="M15.188,16.891 L13.938,15.891 L14.563,15.11 L15.387,15.769 L17.084,13.223 L17.917,13.778 L15.917,16.778 C15.838,16.894 15.715,16.973 15.578,16.995 C15.551,16.998 15.526,17 15.5,17 C15.388,17 15.278,16.962 15.188,16.891 L15.188,16.891 Z M6,12 L8,12 L8,11 L6,11 L6,12 Z M6.001,10 L9.001,10 L9.001,9 L6.001,9 L6.001,10 Z M18.001,7 L18.001,6.5 C18.001,6.224 17.777,6 17.501,6 L10.501,6 C10.224,6 10.001,6.224 10.001,6.5 L10.001,7 L5,7 L5,5.6 C5,5.281 5.198,5 5.422,5 L18.578,5 C18.803,5 19.001,5.281 19.001,5.6 L19.001,7 L18.001,7 Z M15.625,12 C17.487,12 19.001,13.571 19.001,15.5 C19.001,17.43 17.487,19 15.625,19 C13.764,19 12.25,17.43 12.25,15.5 C12.25,13.571 13.764,12 15.625,12 L15.625,12 Z M20,12 L20,5.6 C20,4.718 19.362,4 18.578,4 L5.422,4 C4.638,4 4,4.718 4,5.6 L4,14.4 C4,15.283 4.638,16 5.422,16 L11.299,16 C11.545,18.244 13.379,20 15.625,20 C18.038,20 20,17.982 20,15.5 C20,13.019 18.038,11 15.625,11 C13.379,11 11.545,12.757 11.299,15 L5.422,15 C5.198,15 5,14.72 5,14.4 L5,8 L10.001,8 L10.001,12 L11.001,12 L11.001,8 L11.001,7 L17,7 L17,8 L17,10 L18.001,10 L18.001,8 L19.001,8 L19.001,12 L20,12 Z" id="Amazon-Cognito_Icon_16_Squid" fill="#FFFFFF"></path>
            </g>
        </g>
        <g id="Group-5" transform="translate(280.000000, 33.000000)">
            <text id="RISE-API" font-family="HelveticaNeue-Bold, Helvetica Neue" font-size="16" font-weight="bold" fill="#FFFFFF">
                <tspan x="16" y="16">RISE API</tspan>
            </text>
            <circle id="Oval" fill="url(#linearGradient-6)" cx="6.5" cy="10.5" r="6.5"></circle>
        </g>
        <g id="Rectangle-Copy-6">
            <use fill="black" fill-opacity="1" filter="url(#filter-8)" xlink:href="#path-7"></use>
            <use fill="#000000" fill-rule="evenodd" xlink:href="#path-7"></use>
        </g>
        <text id="Payments-Service" font-family="HelveticaNeue, Helvetica Neue" font-size="12" font-weight="normal" fill="#FFFFFF">
            <tspan x="776" y="48">Payments Service</tspan>
        </text>
        <g id="Rectangle-Copy-7">
            <use fill="black" fill-opacity="1" filter="url(#filter-11)" xlink:href="#path-10"></use>
            <use fill="url(#linearGradient-9)" fill-rule="evenodd" xlink:href="#path-10"></use>
        </g>
        <text id="Customer-Frontend" font-family="HelveticaNeue-Bold, Helvetica Neue" font-size="12" font-weight="bold" fill="#454545">
            <tspan x="38" y="49">Customer Frontend</tspan>
        </text>
        <g id="Rectangle-Copy-8">
            <use fill="black" fill-opacity="1" filter="url(#filter-13)" xlink:href="#path-12"></use>
            <use fill="url(#linearGradient-9)" fill-rule="evenodd" xlink:href="#path-12"></use>
        </g>
        <text id="Barista-Frontend" font-family="HelveticaNeue-Bold, Helvetica Neue" font-size="12" font-weight="bold" fill="#454545">
            <tspan x="38" y="129">Barista Frontend</tspan>
        </text>
        <g id="Rectangle-Copy-9">
            <use fill="black" fill-opacity="1" filter="url(#filter-15)" xlink:href="#path-14"></use>
            <use fill="url(#linearGradient-9)" fill-rule="evenodd" xlink:href="#path-14"></use>
        </g>
        <text id="Manager-Frontend" font-family="HelveticaNeue-Bold, Helvetica Neue" font-size="12" font-weight="bold" fill="#454545">
            <tspan x="38" y="209">Manager Frontend</tspan>
        </text>
        <g id="Group-9" transform="translate(212.000000, 30.000000)" fill="#000000">
            <rect id="Rectangle" x="8" y="5" width="22" height="3"></rect>
            <rect id="Rectangle-Copy" x="5" y="17" width="22" height="3"></rect>
            <polygon id="Triangle" transform="translate(5.000000, 6.500000) rotate(-90.000000) translate(-5.000000, -6.500000) " points="5 2 11 11 -1 11"></polygon>
            <polygon id="Triangle-Copy" transform="translate(30.000000, 18.500000) rotate(-270.000000) translate(-30.000000, -18.500000) " points="30 14 36 23 24 23"></polygon>
        </g>
        <g id="Group-9-Copy-4" transform="translate(212.000000, 111.000000)" fill="#000000">
            <rect id="Rectangle" x="8" y="5" width="22" height="3"></rect>
            <rect id="Rectangle-Copy" x="5" y="17" width="22" height="3"></rect>
            <polygon id="Triangle" transform="translate(5.000000, 6.500000) rotate(-90.000000) translate(-5.000000, -6.500000) " points="5 2 11 11 -1 11"></polygon>
            <polygon id="Triangle-Copy" transform="translate(30.000000, 18.500000) rotate(-270.000000) translate(-30.000000, -18.500000) " points="30 14 36 23 24 23"></polygon>
        </g>
        <g id="Group-9-Copy-5" transform="translate(212.000000, 192.000000)" fill="#000000">
            <rect id="Rectangle" x="8" y="5" width="22" height="3"></rect>
            <rect id="Rectangle-Copy" x="5" y="17" width="22" height="3"></rect>
            <polygon id="Triangle" transform="translate(5.000000, 6.500000) rotate(-90.000000) translate(-5.000000, -6.500000) " points="5 2 11 11 -1 11"></polygon>
            <polygon id="Triangle-Copy" transform="translate(30.000000, 18.500000) rotate(-270.000000) translate(-30.000000, -18.500000) " points="30 14 36 23 24 23"></polygon>
        </g>
        <g id="Group-9-Copy" transform="translate(578.000000, 30.000000)" fill="#000000">
            <rect id="Rectangle" x="8" y="5" width="22" height="3"></rect>
            <rect id="Rectangle-Copy" x="5" y="15" width="22" height="3"></rect>
            <polygon id="Triangle" transform="translate(5.000000, 6.500000) rotate(-90.000000) translate(-5.000000, -6.500000) " points="5 2 11 11 -1 11"></polygon>
            <polygon id="Triangle-Copy" transform="translate(30.000000, 16.500000) rotate(-270.000000) translate(-30.000000, -16.500000) " points="30 12 36 21 24 21"></polygon>
        </g>
        <text id="Backend-Logic-locate" font-family="HelveticaNeue-Bold, Helvetica Neue" font-size="12" font-weight="bold" fill="#1B1B1B">
            <tspan x="259" y="292">Backend Logic located in RISE API</tspan>
        </text>
        <text id="Backend-Logic-locate" font-family="HelveticaNeue-Bold, Helvetica Neue" font-size="12" font-weight="bold" fill="#1B1B1B">
            <tspan x="624" y="292">Backend Logic located in services</tspan>
        </text>
        <text id="Custom-Code-located" font-family="HelveticaNeue-Bold, Helvetica Neue" font-size="12" font-weight="bold" fill="#1B1B1B">
            <tspan x="259" y="377">Custom Code located in RISE API</tspan>
        </text>
        <text id="Custom-Code-located" font-family="HelveticaNeue-Bold, Helvetica Neue" font-size="12" font-weight="bold" fill="#1B1B1B">
            <tspan x="624" y="377">Custom Code located in services</tspan>
        </text>
        <rect id="Rectangle" fill="#EBEBEB" x="259" y="299" width="304" height="28"></rect>
        <rect id="Rectangle-Copy-4" fill="url(#linearGradient-16)" x="259" y="299" width="227" height="28"></rect>
        <rect id="Rectangle-Copy-13" fill="#EBEBEB" x="259" y="384" width="304" height="28"></rect>
        <rect id="Rectangle-Copy-12" fill="#EB5782" x="259" y="384" width="1" height="28"></rect>
        <rect id="Rectangle-Copy-2" fill="#EBEBEB" x="624" y="299" width="304" height="28"></rect>
        <rect id="Rectangle-Copy-5" fill="url(#linearGradient-17)" x="624" y="299" width="86" height="28"></rect>
        <rect id="Rectangle-Copy-15" fill="#EBEBEB" x="624" y="384" width="304" height="28"></rect>
        <rect id="Rectangle-Copy-14" fill="url(#linearGradient-18)" x="624" y="384" width="304" height="28"></rect>
        <text id="80%" font-family="HelveticaNeue-Bold, Helvetica Neue" font-size="12" font-weight="bold" fill="#FFFFFF">
            <tspan x="270" y="317">80%</tspan>
        </text>
        <text id="0%" font-family="HelveticaNeue-Bold, Helvetica Neue" font-size="12" font-weight="bold" fill="#000000">
            <tspan x="270" y="403">0%</tspan>
        </text>
        <text id="20%" font-family="HelveticaNeue-Bold, Helvetica Neue" font-size="12" font-weight="bold" fill="#FFFFFF">
            <tspan x="633" y="318">20%</tspan>
        </text>
        <text id="100%" font-family="HelveticaNeue-Bold, Helvetica Neue" font-size="12" font-weight="bold" fill="#FFFFFF">
            <tspan x="633" y="402">100%</tspan>
        </text>
        <g id="Group-5-Copy" transform="translate(646.000000, 34.000000)">
            <text id="RISE-FOCUS" font-family="HelveticaNeue-Bold, Helvetica Neue" font-size="16" font-weight="bold" fill="#FFFFFF">
                <tspan x="17" y="16">RISE FOCUS</tspan>
            </text>
            <circle id="Oval" fill="url(#linearGradient-6)" cx="6.5" cy="10.5" r="6.5"></circle>
        </g>
        <g id="Rectangle-Copy-10">
            <use fill="black" fill-opacity="1" filter="url(#filter-20)" xlink:href="#path-19"></use>
            <use fill="#000000" fill-rule="evenodd" xlink:href="#path-19"></use>
        </g>
        <text id="Metrics-Service" font-family="HelveticaNeue, Helvetica Neue" font-size="12" font-weight="normal" fill="#FFFFFF">
            <tspan x="776" y="128">Metrics Service</tspan>
        </text>
        <g id="Group-9-Copy-2" transform="translate(578.000000, 110.000000)" fill="#000000">
            <rect id="Rectangle" x="8" y="5" width="22" height="3"></rect>
            <rect id="Rectangle-Copy" x="5" y="15" width="22" height="3"></rect>
            <polygon id="Triangle" transform="translate(5.000000, 6.500000) rotate(-90.000000) translate(-5.000000, -6.500000) " points="5 2 11 11 -1 11"></polygon>
            <polygon id="Triangle-Copy" transform="translate(30.000000, 16.500000) rotate(-270.000000) translate(-30.000000, -16.500000) " points="30 12 36 21 24 21"></polygon>
        </g>
        <g id="Group-5-Copy-2" transform="translate(646.000000, 114.000000)">
            <text id="RISE-FOCUS" font-family="HelveticaNeue-Bold, Helvetica Neue" font-size="16" font-weight="bold" fill="#FFFFFF">
                <tspan x="17" y="16">RISE FOCUS</tspan>
            </text>
            <circle id="Oval" fill="url(#linearGradient-6)" cx="6.5" cy="10.5" r="6.5"></circle>
        </g>
        <g id="Rectangle-Copy-11">
            <use fill="black" fill-opacity="1" filter="url(#filter-22)" xlink:href="#path-21"></use>
            <use fill="#000000" fill-rule="evenodd" xlink:href="#path-21"></use>
        </g>
        <text id="Analtyics-Service" font-family="HelveticaNeue, Helvetica Neue" font-size="12" font-weight="normal" fill="#FFFFFF">
            <tspan x="776" y="209">Analtyics Service</tspan>
        </text>
        <g id="Group-9-Copy-3" transform="translate(578.000000, 191.000000)" fill="#000000">
            <rect id="Rectangle" x="8" y="5" width="22" height="3"></rect>
            <rect id="Rectangle-Copy" x="5" y="15" width="22" height="3"></rect>
            <polygon id="Triangle" transform="translate(5.000000, 6.500000) rotate(-90.000000) translate(-5.000000, -6.500000) " points="5 2 11 11 -1 11"></polygon>
            <polygon id="Triangle-Copy" transform="translate(30.000000, 16.500000) rotate(-270.000000) translate(-30.000000, -16.500000) " points="30 12 36 21 24 21"></polygon>
        </g>
        <g id="Group-5-Copy-3" transform="translate(646.000000, 195.000000)">
            <text id="RISE-FOCUS" font-family="HelveticaNeue-Bold, Helvetica Neue" font-size="16" font-weight="bold" fill="#FFFFFF">
                <tspan x="17" y="16">RISE FOCUS</tspan>
            </text>
            <circle id="Oval" fill="url(#linearGradient-6)" cx="6.5" cy="10.5" r="6.5"></circle>
        </g>
    </g>
</svg>