<?xml version="1.0" encoding="UTF-8"?>
<svg width="300px" height="400px" viewBox="0 0 300 400" version="1.1" xmlns="http://www.w3.org/2000/svg" xmlns:xlink="http://www.w3.org/1999/xlink">
    <title>Group 2</title>
    <g id="Page-1" stroke="none" stroke-width="1" fill="none" fill-rule="evenodd">
        <g id="Group-2">
            <rect id="Rectangle-Copy-109" fill="#F0DFCF" x="0" y="0" width="50" height="50"></rect>
            <rect id="Rectangle-Copy-108" fill="#F0DFCF" x="0" y="50" width="50" height="50"></rect>
            <rect id="Rectangle-Copy-107" fill="#EDCBAE" x="0" y="100" width="50" height="50"></rect>
            <rect id="Rectangle-Copy-106" fill="#F0DFCF" x="0" y="150" width="50" height="50"></rect>
            <rect id="Rectangle-Copy-105" fill="#213245" x="0" y="200" width="50" height="50"></rect>
            <rect id="Rectangle-Copy-104" fill="#213245" x="0" y="250" width="50" height="50"></rect>
            <rect id="Rectangle-Copy-103" fill="#F29E60" x="0" y="300" width="50" height="50"></rect>
            <rect id="Rectangle-Copy-102" fill="#F29E60" x="0" y="350" width="50" height="50"></rect>
            <rect id="Rectangle-Copy-101" fill="#2C576E" x="50" y="50" width="50" height="50"></rect>
            <rect id="Rectangle-Copy-100" fill="#F0DFCF" x="50" y="100" width="50" height="50"></rect>
            <rect id="Rectangle-Copy-99" fill="#EDCBAE" x="50" y="150" width="50" height="50"></rect>
            <rect id="Rectangle-Copy-98" fill="#2C576E" x="50" y="200" width="50" height="50"></rect>
            <rect id="Rectangle-Copy-97" fill="#2C576E" x="50" y="250" width="50" height="50"></rect>
            <rect id="Rectangle-Copy-96" fill="#EDCBAE" x="50" y="300" width="50" height="50"></rect>
            <rect id="Rectangle-Copy-95" fill="#F0DFCF" x="50" y="350" width="50" height="50"></rect>
            <rect id="Rectangle-Copy-94" fill="#EDCBAE" x="100" y="50" width="50" height="50"></rect>
            <rect id="Rectangle-Copy-93" fill="#2C576E" x="100" y="100" width="50" height="50"></rect>
            <rect id="Rectangle-Copy-92" fill="#E56964" x="100" y="150" width="50" height="50"></rect>
            <rect id="Rectangle-Copy-91" fill="#F0DFCF" x="100" y="200" width="50" height="50"></rect>
            <rect id="Rectangle-Copy-90" fill="#F0DFCF" x="100" y="250" width="50" height="50"></rect>
            <rect id="Rectangle-Copy-89" fill="#EDCBAE" x="100" y="300" width="50" height="50"></rect>
            <rect id="Rectangle-Copy-88" fill="#F29E60" x="100" y="350" width="50" height="50"></rect>
            <rect id="Rectangle-Copy-87" fill="#213245" x="150" y="50" width="50" height="50"></rect>
            <rect id="Rectangle-Copy-86" fill="#F0DFCF" x="150" y="100" width="50" height="50"></rect>
            <rect id="Rectangle-Copy-85" fill="#EDCBAE" x="150" y="150" width="50" height="50"></rect>
            <rect id="Rectangle-Copy-84" fill="#F29E60" x="150" y="200" width="50" height="50"></rect>
            <rect id="Rectangle-Copy-83" fill="#213245" x="150" y="250" width="50" height="50"></rect>
            <rect id="Rectangle-Copy-82" fill="#2C576E" x="150" y="300" width="50" height="50"></rect>
            <rect id="Rectangle-Copy-81" fill="#F0DFCF" x="150" y="350" width="50" height="50"></rect>
            <rect id="Rectangle-Copy-80" fill="#F0DFCF" x="200" y="50" width="50" height="50"></rect>
            <rect id="Rectangle-Copy-79" fill="#F29E60" x="200" y="100" width="50" height="50"></rect>
            <rect id="Rectangle-Copy-78" fill="#F29E60" x="200" y="150" width="50" height="50"></rect>
            <rect id="Rectangle-Copy-77" fill="#F29E60" x="200" y="200" width="50" height="50"></rect>
            <rect id="Rectangle-Copy-76" fill="#E56964" x="200" y="250" width="50" height="50"></rect>
            <rect id="Rectangle-Copy-75" fill="#213245" x="200" y="300" width="50" height="50"></rect>
            <rect id="Rectangle-Copy-74" fill="#213245" x="200" y="350" width="50" height="50"></rect>
            <rect id="Rectangle-Copy-73" fill="#E56964" x="250" y="50" width="50" height="50"></rect>
            <rect id="Rectangle-Copy-72" fill="#F0DFCF" x="250" y="100" width="50" height="50"></rect>
            <rect id="Rectangle-Copy-71" fill="#213245" x="250" y="150" width="50" height="50"></rect>
            <rect id="Rectangle-Copy-70" fill="#F0DFCF" x="250" y="200" width="50" height="50"></rect>
            <rect id="Rectangle-Copy-69" fill="#2C576E" x="250" y="250" width="50" height="50"></rect>
            <rect id="Rectangle-Copy-68" fill="#F29E60" x="250" y="300" width="50" height="50"></rect>
            <rect id="Rectangle-Copy-67" fill="#213245" x="250" y="350" width="50" height="50"></rect>
            <rect id="Rectangle-Copy-52" fill="#213245" x="50" y="0" width="50" height="50"></rect>
            <rect id="Rectangle-Copy-51" fill="#F0DFCF" x="100" y="0" width="50" height="50"></rect>
            <rect id="Rectangle-Copy-50" fill="#F29E60" x="150" y="0" width="50" height="50"></rect>
            <rect id="Rectangle-Copy-49" fill="#213245" x="200" y="0" width="50" height="50"></rect>
            <rect id="Rectangle-Copy-48" fill="#F29E60" x="250" y="0" width="50" height="50"></rect>
            <path d="M250,200 C277.614237,200 300,222.385763 300,250 L250,250 L250,200 Z" id="Combined-Shape-Copy-65" fill="#EDCBAE"></path>
            <path d="M200,300 C227.614237,300 250,322.385763 250,350 L200,350 L200,300 Z" id="Combined-Shape-Copy-64" fill="#EDCBAE"></path>
            <path d="M200,350 C227.614237,350 250,372.385763 250,400 L200,400 L200,350 Z" id="Combined-Shape-Copy-63" fill="#E56964"></path>
            <path d="M200,151 C227.614237,151 250,173.385763 250,201 L200,201 L200,151 Z" id="Combined-Shape-Copy-62" fill="#E56964"></path>
            <path d="M150,150 C177.614237,150 200,172.385763 200,200 L150,200 L150,150 Z" id="Combined-Shape-Copy-61" fill="#213245"></path>
            <path d="M100,100 C127.614237,100 150,122.385763 150,150 L100,150 L100,100 Z" id="Combined-Shape-Copy-60" fill="#F29E60"></path>
            <path d="M0,100 C27.6142375,100 50,122.385763 50,150 L0,150 L0,100 Z" id="Combined-Shape-Copy-59" fill="#F29E60"></path>
            <path d="M0,150 C27.6142375,150 50,172.385763 50,200 L0,200 L0,150 Z" id="Combined-Shape-Copy-58" fill="#2C576E"></path>
            <path d="M200,0 C227.614237,0 250,22.3857625 250,50 L200,50 L200,0 Z" id="Combined-Shape-Copy-57" fill="#EDCBAE"></path>
            <path d="M50,300 C77.6142375,300 100,322.385763 100,350 L50,350 L50,300 Z" id="Combined-Shape-Copy-56" fill="#E56964"></path>
            <path d="M50,200 C77.6142375,200 100,222.385763 100,250 L50,250 L50,200 Z" id="Combined-Shape-Copy-55" fill="#E56964" transform="translate(75.000000, 225.000000) rotate(-270.000000) translate(-75.000000, -225.000000) "></path>
            <path d="M100,349 C127.614237,349 150,371.385763 150,399 L100,399 L100,349 Z" id="Combined-Shape-Copy-54" fill="#213245" transform="translate(125.000000, 374.000000) rotate(-270.000000) translate(-125.000000, -374.000000) "></path>
            <path d="M250,249.371094 C277.614237,249.371094 300,271.756856 300,299.371094 L250,299.371094 L250,249.371094 Z" id="Combined-Shape-Copy-53" fill="#EDCBAE" transform="translate(275.000000, 274.371094) rotate(-180.000000) translate(-275.000000, -274.371094) "></path>
            <path d="M250,349.371094 C277.614237,349.371094 300,371.756856 300,399.371094 L250,399.371094 L250,349.371094 Z" id="Combined-Shape-Copy-52" fill="#EDCBAE" transform="translate(275.000000, 374.371094) rotate(-180.000000) translate(-275.000000, -374.371094) "></path>
            <path d="M50,349.371094 C77.6142375,349.371094 100,371.756856 100,399.371094 L50,399.371094 L50,349.371094 Z" id="Combined-Shape-Copy-51" fill="#E56964" transform="translate(75.000000, 374.371094) rotate(-180.000000) translate(-75.000000, -374.371094) "></path>
            <path d="M0,299.371094 C27.6142375,299.371094 50,321.756856 50,349.371094 L0,349.371094 L0,299.371094 Z" id="Combined-Shape-Copy-50" fill="#2C576E" transform="translate(25.000000, 324.371094) rotate(-180.000000) translate(-25.000000, -324.371094) "></path>
            <path d="M250,150.371094 C277.614237,150.371094 300,172.756856 300,200.371094 L250,200.371094 L250,150.371094 Z" id="Combined-Shape-Copy-49" fill="#2C576E" transform="translate(275.000000, 175.371094) rotate(-180.000000) translate(-275.000000, -175.371094) "></path>
            <path d="M100,200.371094 C127.614237,200.371094 150,222.756856 150,250.371094 L100,250.371094 L100,200.371094 Z" id="Combined-Shape-Copy-48" fill="#EDCBAE" transform="translate(125.000000, 225.371094) rotate(-180.000000) translate(-125.000000, -225.371094) "></path>
            <path d="M200,101.371094 C227.614237,101.371094 250,123.756856 250,151.371094 L200,151.371094 L200,101.371094 Z" id="Combined-Shape-Copy-47" fill="#F0DFCF" transform="translate(225.000000, 126.371094) rotate(-180.000000) translate(-225.000000, -126.371094) "></path>
            <path d="M50,149.371094 C77.6142375,149.371094 100,171.756856 100,199.371094 L50,199.371094 L50,149.371094 Z" id="Combined-Shape-Copy-46" fill="#213245" transform="translate(75.000000, 174.371094) rotate(-180.000000) translate(-75.000000, -174.371094) "></path>
            <path d="M150,50.3710938 C177.614237,50.3710938 200,72.7568563 200,100.371094 L150,100.371094 L150,50.3710938 Z" id="Combined-Shape-Copy-45" fill="#E56964" transform="translate(175.000000, 75.371094) rotate(-180.000000) translate(-175.000000, -75.371094) "></path>
            <path d="M0,0.37109375 C27.6142375,0.37109375 50,22.7568563 50,50.3710938 L0,50.3710938 L0,0.37109375 Z" id="Combined-Shape-Copy-44" fill="#E56964" transform="translate(25.000000, 25.371094) rotate(-180.000000) translate(-25.000000, -25.371094) "></path>
            <path d="M200,199.753906 C227.614237,199.753906 250,222.139669 250,249.753906 L200,249.753906 L200,199.753906 Z" id="Combined-Shape-Copy-43" fill="#F0DFCF" transform="translate(225.000000, 224.753906) rotate(-90.000000) translate(-225.000000, -224.753906) "></path>
            <path d="M100,299.753906 C127.614237,299.753906 150,322.139669 150,349.753906 L100,349.753906 L100,299.753906 Z" id="Combined-Shape-Copy-42" fill="#213245" transform="translate(125.000000, 324.753906) rotate(-90.000000) translate(-125.000000, -324.753906) "></path>
            <path d="M250,299.753906 C277.614237,299.753906 300,322.139669 300,349.753906 L250,349.753906 L250,299.753906 Z" id="Combined-Shape-Copy-41" fill="#EDCBAE" transform="translate(275.000000, 324.753906) rotate(-90.000000) translate(-275.000000, -324.753906) "></path>
            <path d="M250,100.753906 C277.614237,100.753906 300,123.139669 300,150.753906 L250,150.753906 L250,100.753906 Z" id="Combined-Shape-Copy-40" fill="#2C576E" transform="translate(275.000000, 125.753906) rotate(-90.000000) translate(-275.000000, -125.753906) "></path>
            <path d="M150,100.753906 C177.614237,100.753906 200,123.139669 200,150.753906 L150,150.753906 L150,100.753906 Z" id="Combined-Shape-Copy-39" fill="#EDCBAE" transform="translate(175.000000, 125.753906) rotate(-90.000000) translate(-175.000000, -125.753906) "></path>
            <path d="M100,149.753906 C127.614237,149.753906 150,172.139669 150,199.753906 L100,199.753906 L100,149.753906 Z" id="Combined-Shape-Copy-38" fill="#F0DFCF" transform="translate(125.000000, 174.753906) rotate(-90.000000) translate(-125.000000, -174.753906) "></path>
            <path d="M50,99.7539063 C77.6142375,99.7539063 100,122.139669 100,149.753906 L50,149.753906 L50,99.7539063 Z" id="Combined-Shape-Copy-37" fill="#213245" transform="translate(75.000000, 124.753906) rotate(-90.000000) translate(-75.000000, -124.753906) "></path>
            <path d="M200,50.7539063 C227.614237,50.7539063 250,73.1396688 250,100.753906 L200,100.753906 L200,50.7539063 Z" id="Combined-Shape-Copy-36" fill="#2C576E" transform="translate(225.000000, 75.753906) rotate(-90.000000) translate(-225.000000, -75.753906) "></path>
            <path d="M150,0.75390625 C177.614237,0.75390625 200,23.1396688 200,50.7539063 L150,50.7539063 L150,0.75390625 Z" id="Combined-Shape-Copy-35" fill="#E56964" transform="translate(175.000000, 25.753906) rotate(-90.000000) translate(-175.000000, -25.753906) "></path>
        </g>
    </g>
</svg>